<svg version="1.0" xmlns="http://www.w3.org/2000/svg"
 width="1024" height="1024" viewBox="0 0 1024 1024" preserveAspectRatio="xMidYMid meet">
<g transform="translate(0,1024) scale(0.1,-0.1)" fill="#f8c32c" stroke="none">
<path d="M5532 8079 c-295 -76 -531 -208 -733 -410 -169 -170 -304 -387 -351
-564 -32 -123 -37 -333 -9 -448 66 -277 277 -535 566 -692 135 -74 316 -144
705 -274 588 -198 753 -271 977 -437 310 -230 545 -600 618 -974 36 -186 31
-439 -15 -655 -44 -215 -182 -536 -291 -680 -57 -75 -52 -73 56 18 321 272
557 651 637 1020 29 137 32 381 5 507 -59 277 -181 507 -374 703 -207 211
-377 310 -956 558 -338 145 -583 263 -732 354 -360 219 -603 491 -695 780 -34
107 -40 303 -11 415 71 285 332 592 649 763 39 21 72 41 72 43 0 2 -1 4 -2 3
-2 0 -54 -14 -116 -30z"/>
<path d="M6160 8024 c-14 -2 -58 -9 -99 -15 -402 -59 -759 -355 -906 -750 -18
-49 -30 -89 -27 -87 67 36 215 102 277 122 123 42 341 93 498 118 189 29 505
32 642 5 149 -30 435 -125 435 -146 0 -3 -43 -28 -95 -54 -136 -69 -256 -158
-370 -273 -125 -126 -213 -247 -280 -389 -51 -105 -133 -340 -123 -350 2 -3
175 -6 384 -7 l379 -3 75 27 c155 57 267 159 340 312 56 118 75 214 74 371 -5
541 -376 1004 -884 1101 -76 15 -275 26 -320 18z"/>
<path d="M4435 7827 c-208 -125 -352 -246 -485 -405 -258 -308 -343 -597 -250
-845 71 -191 261 -376 524 -512 71 -37 305 -135 322 -135 3 0 -30 26 -73 58
-187 139 -352 372 -413 582 -31 105 -39 337 -16 468 45 261 218 568 439 780
48 45 83 82 79 82 -4 -1 -61 -33 -127 -73z"/>
<path d="M3443 7487 c-291 -243 -515 -556 -607 -845 -61 -195 -72 -426 -27
-595 80 -302 313 -557 678 -742 265 -133 575 -227 1373 -415 506 -119 716
-187 896 -287 542 -302 748 -876 538 -1503 -71 -213 -185 -416 -308 -548 -69
-74 -67 -74 64 16 178 122 279 215 430 396 207 248 342 510 402 776 33 149 33
396 0 519 -34 122 -50 167 -93 253 -139 281 -388 511 -700 648 -179 79 -315
117 -799 224 -945 208 -1323 332 -1630 534 -110 71 -262 224 -324 325 -142
228 -165 520 -65 822 40 122 136 313 208 413 33 45 58 82 56 82 -2 0 -44 -33
-92 -73z"/>
<path d="M2838 5133 c20 -37 155 -155 245 -214 229 -151 445 -245 1067 -466
257 -92 468 -177 610 -247 405 -201 663 -467 750 -776 42 -147 37 -358 -11
-504 -32 -96 -113 -254 -170 -331 -79 -105 -222 -242 -327 -313 -51 -34 -89
-62 -84 -62 19 0 250 100 319 138 279 155 518 399 653 671 147 295 158 611 30
880 -140 291 -400 482 -820 600 -58 16 -184 47 -280 70 -371 86 -521 121 -695
161 -590 135 -992 256 -1198 363 -45 23 -86 44 -90 46 -5 2 -4 -5 1 -16z"/>
<path d="M3344 4091 c-227 -56 -383 -217 -444 -455 -25 -98 -27 -311 -5 -439
57 -327 287 -646 585 -810 305 -168 693 -197 1048 -78 196 65 358 166 503 310
105 105 156 175 216 296 34 66 83 203 83 229 0 3 -19 -6 -42 -20 -235 -148
-581 -243 -998 -274 -335 -24 -648 29 -914 155 l-78 37 93 56 c297 176 511
400 654 682 25 49 135 315 135 326 0 2 -172 4 -382 3 -330 0 -393 -3 -454 -18z"/>
</g>
</svg>
