<svg version="1.0" xmlns="http://www.w3.org/2000/svg" width="512" height="512" viewBox="0 0 512 512">
<g fill="#f8c32c">
  <path d="m195 144c11.6 45 56.3 59.3 95.3 72.4 44.1 14.8 56.5 20.3 73.3 32.8 23.2 17.2 40.9 45 46.4 73 9.5 49.1-19.2 96.2-25.2 104 10.9-5.79 66.5-64.5 54.6-120-11.9-54.8-52.4-74.1-99.8-94.6-25.4-10.9-43.7-19.7-54.9-26.6-13.5-8.23-65-43-53-89.6 9.6-38.5 54.1-60.4 54.1-60.4 0-0.15-0.075-0.3-0.15-0.225-59.3 12.1-102 63.3-90.7 109z"/>
  <path d="m324 41.5c-34.5 5.13-70.3 27.2-77.4 63.9 64.8-34.8 139-13.1 139-7.42-29.7 16.2-60.3 44.5-65.1 80 44.9 3.32 90.6 4.44 93.9-52.5-0.607-65.7-49.8-85.7-90.3-83.9z"/>
  <path d="m159 86.7c-19.4 23.1-25.7 44.8-18.8 63.4 9.71 23 39.3 42.5 63.4 48.5 1.1 0-47.3-28.1-37.6-83.1 6.46-37.5 39.9-64.6 38.8-64.6-17.4 9.03-33.1 21-45.9 35.8z"/>
  <path d="m75.1 145c-4.58 14.6-5.4 32-2.02 44.6 6 22.6 23.5 41.8 50.8 55.6 19.9 9.98 43.1 17 103 31.1 38 8.92 53.7 14 67.2 21.5 40.6 22.6 56.1 65.7 40.4 113-5.32 16-16.9 35.3-26.1 45.2 0.501 0.688 57.1-35.1 70.2-93.2 9.84-44.4-15.6-87.2-59.5-106-13.4-5.92-23.6-8.78-59.9-16.8-65.5-14.4-124-28.1-147-64.4-10.6-17.1-12.4-39-4.88-61.6 6.22-19 19.9-37.1 19.8-37.1-0.0606 0-39.5 28.3-52.4 68.8z"/>
  <path d="m93.6 274c57.8 38.1 163 44 182 112 9.99 41-14 66.9-44.4 90.8 31.3-9 57.6-32.4 72.9-60.7 11-22.1 11.8-45.8 2.25-66-24.3-46.2-88.4-51.7-135-62.3-32.9-7.69-66.3-15.2-96.6-30.7-3.19-1.28 7.56 10.1 18.4 17.2z"/>
  <path d="m79.5 404c8.54 49 62.3 86.8 122 66.6 37.4-12.4 57.8-44.5 60.2-62.6 0-0.865-72.2 45.7-152 7.65 31.2-17 56-45.5 66.2-79.8-52.8-8.24-105 8.11-96.4 68.2z"/>
</g>
</svg>

